<svg xmlns="http://www.w3.org/2000/svg" width="374" height="474" viewBox="0 0 374 474"><rect width="100%" height="100%" fill="#DDDDDD"/><path fill="#999999" d="m79.11 229.575-3.25-.58q.37-2.6 1.45-4.56 1.07-1.96 2.69-3.27 1.61-1.32 3.7-1.98 2.08-.66 4.48-.66 2.5 0 4.52.71 2.01.71 3.43 1.98 1.43 1.26 2.19 2.96t.76 3.67q0 1.73-.38 3.04-.39 1.31-1.12 2.29-.72.97-1.8 1.65-1.07.67-2.42 1.12 3.25 1.03 4.85 3.13t1.6 5.27q0 2.7-1 4.78-1 2.07-2.7 3.49-1.7 1.41-3.94 2.13-2.24.73-4.74.73-2.72 0-4.75-.63-2.02-.62-3.52-1.85-1.5-1.22-2.55-3-1.05-1.77-1.8-4.1l2.72-1.12q1.08-.45 2.02-.24.93.21 1.36 1.01.45.88.99 1.73.53.85 1.28 1.51t1.77 1.08q1.01.41 2.41.41 1.57 0 2.75-.51 1.17-.52 1.96-1.34.79-.83 1.18-1.84.38-1.01.38-2.04 0-1.3-.27-2.36-.28-1.06-1.15-1.81-.88-.75-2.51-1.18-1.64-.42-4.39-.42v-4.4q2.27-.03 3.77-.43t2.39-1.11 1.24-1.71.35-2.2q0-2.55-1.43-3.88-1.42-1.32-3.8-1.32-1.1 0-2.02.31-.93.31-1.66.88-.74.56-1.24 1.31t-.75 1.65q-.43 1.15-1.11 1.52-.69.38-1.94.18m25.37-10.65h24.98v2.67q0 1.21-.25 1.94-.25.74-.5 1.24l-13.7 28.2q-.43.87-1.2 1.49-.78.61-2.08.61h-4.47l13.97-27.63q.48-.85.94-1.56t1.04-1.36h-17.3q-.58 0-1-.43-.43-.42-.43-1zm33.48 22.52h11v-11.82q0-1.68.22-3.7zm16.37 0h4.55v3.58q0 .5-.32.86-.33.36-.93.36h-3.3v8.83h-5.37v-8.83h-15.25q-.63 0-1.1-.38-.48-.39-.6-.97l-.65-3.12 17.12-22.88h5.85zm44.28 5.35-3.28 3.23-8.47-8.48-8.55 8.53-3.28-3.22 8.55-8.58-8.15-8.15 3.25-3.25 8.15 8.15 8.1-8.1 3.3 3.25-8.12 8.12zm21.65-5.35h11v-11.82q0-1.68.22-3.7zm16.37 0h4.56v3.58q0 .5-.33.86t-.92.36h-3.31v8.83h-5.37v-8.83h-15.25q-.63 0-1.1-.38-.48-.39-.6-.97l-.65-3.12 17.12-22.88h5.85zm8.15-22.52h24.98v2.67q0 1.21-.25 1.94-.25.74-.5 1.24l-13.7 28.2q-.43.87-1.2 1.49-.78.61-2.08.61h-4.47l13.97-27.63q.48-.85.94-1.56.47-.71 1.04-1.36h-17.3q-.58 0-1-.43-.43-.42-.43-1zm33.48 22.52h11v-11.82q0-1.68.22-3.7zm16.37 0h4.56v3.58q0 .5-.33.86t-.92.36h-3.31v8.83h-5.37v-8.83h-15.25q-.63 0-1.1-.38-.48-.39-.6-.97l-.65-3.12 17.12-22.88h5.85z"/></svg>