<svg xmlns="http://www.w3.org/2000/svg" width="474" height="474" viewBox="0 0 474 474"><rect width="100%" height="100%" fill="#DDDDDD"/><path fill="#999999" d="M103.05 242.62h13.86v-14.9q0-2.11.28-4.66zm20.63 0h5.73v4.51q0 .63-.4 1.08-.41.46-1.17.46h-4.16v11.12h-6.77v-11.12H97.69q-.78 0-1.38-.49t-.76-1.21l-.82-3.94 21.58-28.82h7.37zm10.27-28.38h31.47v3.37q0 1.51-.32 2.44-.31.93-.63 1.56l-17.26 35.53q-.53 1.11-1.51 1.88t-2.61.77h-5.64l17.61-34.81q.59-1.07 1.18-1.97.58-.89 1.3-1.71h-21.79q-.73 0-1.26-.54-.54-.53-.54-1.26zm42.18 28.38h13.86v-14.9q0-2.11.28-4.66zm20.63 0h5.73v4.51q0 .63-.4 1.08-.41.46-1.17.46h-4.16v11.12h-6.77v-11.12h-19.22q-.78 0-1.38-.49t-.76-1.21l-.82-3.94 21.58-28.82h7.37zm55.79 6.74-4.13 4.07-10.68-10.68-10.77 10.74-4.13-4.06 10.78-10.81-10.27-10.27 4.09-4.09 10.27 10.27 10.21-10.21 4.16 4.1-10.24 10.23zm27.28-6.74h13.86v-14.9q0-2.11.28-4.66zm20.63 0h5.73v4.51q0 .63-.41 1.08-.41.46-1.16.46h-4.16v11.12h-6.77v-11.12h-19.22q-.79 0-1.38-.49-.6-.49-.76-1.21l-.82-3.94 21.58-28.82h7.37zm10.27-28.38h31.47v3.37q0 1.51-.32 2.44-.31.93-.63 1.56l-17.26 35.53q-.54 1.11-1.51 1.88-.98.77-2.62.77h-5.63l17.6-34.81q.6-1.07 1.18-1.97.59-.89 1.31-1.71h-21.8q-.72 0-1.26-.54-.53-.53-.53-1.26zm42.18 28.38h13.86v-14.9q0-2.11.28-4.66zm20.63 0h5.73v4.51q0 .63-.41 1.08-.41.46-1.16.46h-4.16v11.12h-6.77v-11.12h-19.22q-.79 0-1.38-.49-.6-.49-.76-1.21l-.82-3.94 21.58-28.82h7.37z"/></svg>