<?xml version="1.0" encoding="UTF-8"?>
<svg viewBox="0 0 760 900" xmlns="http://www.w3.org/2000/svg" preserveAspectRatio="none">
  <path
    d="
      M 300 0
      L 760 0
      L 760 900
      L 470 900

      C 452 866, 440 838, 436 804
      C 432 766, 438 732, 452 700

      C 466 668, 474 638, 474 606
      C 474 572, 466 542, 448 514

      C 428 484, 412 454, 406 418
      C 400 382, 406 348, 422 316

      C 438 286, 446 256, 444 222
      C 442 178, 424 116, 388 56

      C 368 24, 338 4, 300 0
      Z
    "
    fill="#d4d4d4"
  />
</svg>
